<svg id="Capa_1" enable-background="new 0 0 512 512" height="512" viewBox="0 0 512 512" width="512" xmlns="http://www.w3.org/2000/svg"><g><path d="m393.847 0h-66.065l-8.172 7.562-8.344-7.562h-82.581l-8.767 7.562-7.748-7.562h-82.581l-7.408 16.516v280.774l288.182 24.774v-74.323l-7.35-5.611 7.35-10.905v-107.354l-7.35-7.495 7.35-9.021v-90.839c0-9.122-7.395-16.516-16.516-16.516z" fill="#9f6a5a"/><path d="m410.363 123.871v-16.516h-57.806c-13.682 0-24.774-11.092-24.774-24.774v-82.581h-16.516v107.355h-57.807c-13.682 0-24.774-11.092-24.774-24.774v-82.581h-16.516v107.355h-57.806c-13.682 0-24.774-11.092-24.774-24.774v-82.581c-9.121 0-16.516 7.394-16.516 16.516v107.355 123.871h99.097v33.032h16.516v-33.032h82.581v123.871h99.097v-16.516h-57.806c-13.682 0-24.774-11.092-24.774-24.774v-82.581h82.581v-16.516h-57.806c-13.682 0-24.774-11.092-24.774-24.774v-82.581zm-256 107.355c-13.682 0-24.774-11.092-24.774-24.774v-82.581h82.581v107.355zm156.903 0h-57.806c-13.682 0-24.774-11.092-24.774-24.774v-82.581h82.581v107.355z" fill="#845252"/><g fill="#c1805d"><path d="m278.234 206.452h-16.516c-4.561 0-8.258-3.697-8.258-8.258v-41.29c0-4.561 3.697-8.258 8.258-8.258h16.516c4.561 0 8.258 3.697 8.258 8.258v41.29c0 4.56-3.697 8.258-8.258 8.258z"/><path d="m278.234 82.581h-16.516c-4.561 0-8.258-3.697-8.258-8.258v-41.29c0-4.561 3.697-8.258 8.258-8.258h16.516c4.561 0 8.258 3.697 8.258 8.258v41.29c0 4.56-3.697 8.258-8.258 8.258z"/><path d="m179.137 206.452h-16.516c-4.561 0-8.258-3.697-8.258-8.258v-41.29c0-4.561 3.697-8.258 8.258-8.258h16.516c4.561 0 8.258 3.697 8.258 8.258v41.29c0 4.56-3.697 8.258-8.258 8.258z"/><path d="m179.137 82.581h-16.516c-4.561 0-8.258-3.697-8.258-8.258v-41.29c0-4.561 3.697-8.258 8.258-8.258h16.516c4.561 0 8.258 3.697 8.258 8.258v41.29c0 4.56-3.697 8.258-8.258 8.258z"/><path d="m377.331 330.323h-16.516c-4.561 0-8.258-3.697-8.258-8.258v-41.29c0-4.561 3.697-8.258 8.258-8.258h16.516c4.561 0 8.258 3.697 8.258 8.258v41.29c0 4.56-3.697 8.258-8.258 8.258z"/></g><path d="m111.104 305.548v189.935l10.227 16.517h280.774c9.122 0 16.516-7.395 16.516-16.516v-127.245l-239.484-95.723z" fill="#ff7e8e"/><path d="m164.789 359.465c5.061 1.688 10.333 2.543 15.668 2.543 4.047 0 8.09-.498 12.016-1.479l82.39-20.598c2.416-.606 4.971-.653 7.409-.139l136.096 28.652c.11-.09.142-.116.253-.205v-27.751l-239.484-67.972-74.323 33.032v189.935c0 9.121 7.395 16.516 16.516 16.516v-144.105c0-11.273 11.044-19.233 21.739-15.669z" fill="#fb5f7a"/><path d="m377.331 82.581h-16.516c-4.561 0-8.258-3.697-8.258-8.258v-41.29c0-4.561 3.697-8.258 8.258-8.258h16.516c4.561 0 8.258 3.697 8.258 8.258v41.29c0 4.56-3.697 8.258-8.258 8.258z" fill="#c1805d"/><path d="m410.363 297.29-278.983-69.745-37.217 75.835 84.706 33.882 35.471.776 56.518-14.13c4.854-1.214 9.92-1.308 14.816-.278l133.911 28.192c6.544 1.378 11.926-5.187 9.292-11.334z" fill="#e8e6e8"/><path d="m112.937 278.198 18.443-50.654-18.307-4.577-30.133 82.866c-1.589 4.369.74 9.187 5.15 10.657l81.922 27.307c5.96 1.987 12.363 2.233 18.457.709l25.871-6.468-85.761-27.796c-13.347-4.326-20.442-18.861-15.642-32.044z" fill="#d7d4d7"/><path d="m377.331 206.452h-16.516c-4.561 0-8.258-3.697-8.258-8.258v-41.29c0-4.561 3.697-8.258 8.258-8.258h16.516c4.561 0 8.258 3.697 8.258 8.258v41.29c0 4.56-3.697 8.258-8.258 8.258z" fill="#c1805d"/></g></svg>