<svg width="512" height="512" viewBox="0 0 512 512" fill="none" xmlns="http://www.w3.org/2000/svg">
<path d="M256 0C114.833 0 0 114.833 0 256C0 397.167 114.833 512 256 512C397.167 512 512 397.167 512 256C512 114.833 397.167 0 256 0ZM309.333 170.667C309.333 173.5 308.208 176.209 306.208 178.209L228.417 256L306.209 333.792C308.209 335.792 309.334 338.5 309.334 341.334V373.334C309.334 377.647 306.73 381.542 302.751 383.188C298.772 384.792 294.168 383.917 291.126 380.875L173.792 263.542C169.625 259.375 169.625 252.625 173.792 248.459L291.125 131.126C293.167 129.084 295.896 128.001 298.667 128.001C300.042 128.001 301.438 128.272 302.75 128.814C306.729 130.46 309.333 134.356 309.333 138.668V170.667Z" fill="#444444"/>
</svg>
